HIERARCHY
ROOT Hips
{
    OFFSET   0.000000   0.000000   0.000000
    CHANNELS 6 Xposition Yposition Zposition Zrotation Xrotation Yrotation
    JOINT Chest
    {
        OFFSET   0.000000   8.007230   0.000000
        CHANNELS 3 Zrotation Xrotation Yrotation
        JOINT Chest2
        {
            OFFSET   0.000000  22.077100   0.000000
            CHANNELS 3 Zrotation Xrotation Yrotation
            JOINT Neck
            {
                OFFSET   0.000000  23.255100   0.000000
                CHANNELS 3 Zrotation Xrotation Yrotation
                JOINT Head
                {
                    OFFSET   0.000000  14.370100   1.956600
                    CHANNELS 3 Zrotation Xrotation Yrotation
                    End Site
                    {
                        OFFSET   0.000000  19.566000   0.000000
                    }
                }
            }
            JOINT LeftCollar
            {
                OFFSET   3.911900  19.017000  -0.467063
                CHANNELS 3 Zrotation Xrotation Yrotation
                JOINT LeftShoulder
                {
                    OFFSET  10.383700   0.000000   0.000000
                    CHANNELS 3 Zrotation Xrotation Yrotation
                    JOINT LeftElbow
                    {
                        OFFSET  26.662100   0.001193   0.000980
                        CHANNELS 3 Zrotation Xrotation Yrotation
                        JOINT LeftWrist
                        {
                            OFFSET  28.869000  -0.000059  -0.000082
                            CHANNELS 3 Zrotation Xrotation Yrotation
                            JOINT LeftFinger0
                            {
                                OFFSET   2.044650  -2.323450   3.252850
                                CHANNELS 3 Zrotation Xrotation Yrotation
                                JOINT LeftFinger01
                                {
                                    OFFSET   3.088130   0.000000   0.000000
                                    CHANNELS 3 Zrotation Xrotation Yrotation
                                    JOINT LeftFinger02
                                    {
                                        OFFSET   2.639460   0.000000   0.000000
                                        CHANNELS 3 Zrotation Xrotation Yrotation
                                        End Site
                                        {
                                            OFFSET   2.582190   0.000000   0.000000
                                        }
                                    }
                                }
                            }
                            JOINT LeftFinger1
                            {
                                OFFSET   8.364480   0.000000   3.252850
                                CHANNELS 3 Zrotation Xrotation Yrotation
                                JOINT LeftFinger11
                                {
                                    OFFSET   4.646930   0.000000   0.000000
                                    CHANNELS 3 Zrotation Xrotation Yrotation
                                    JOINT LeftFinger12
                                    {
                                        OFFSET   2.323470   0.000000   0.000000
                                        CHANNELS 3 Zrotation Xrotation Yrotation
                                        End Site
                                        {
                                            OFFSET   2.273050   0.000000   0.000000
                                        }
                                    }
                                }
                            }
                            JOINT LeftFinger2
                            {
                                OFFSET   8.364490   0.000016   1.078090
                                CHANNELS 3 Zrotation Xrotation Yrotation
                                JOINT LeftFinger21
                                {
                                    OFFSET   5.111610   0.000000   0.000000
                                    CHANNELS 3 Zrotation Xrotation Yrotation
                                    JOINT LeftFinger22
                                    {
                                        OFFSET   2.788150   0.000016   0.000000
                                        CHANNELS 3 Zrotation Xrotation Yrotation
                                        End Site
                                        {
                                            OFFSET   2.727660   0.000000   0.000000
                                        }
                                    }
                                }
                            }
                            JOINT LeftFinger3
                            {
                                OFFSET   7.899780   0.000015  -1.078090
                                CHANNELS 3 Zrotation Xrotation Yrotation
                                JOINT LeftFinger31
                                {
                                    OFFSET   4.646930   0.000000   0.000000
                                    CHANNELS 3 Zrotation Xrotation Yrotation
                                    JOINT LeftFinger32
                                    {
                                        OFFSET   2.323470   0.000000   0.000000
                                        CHANNELS 3 Zrotation Xrotation Yrotation
                                        End Site
                                        {
                                            OFFSET   2.273050   0.000000   0.000000
                                        }
                                    }
                                }
                            }
                            JOINT LeftFinger4
                            {
                                OFFSET   7.435090   0.000000  -3.252850
                                CHANNELS 3 Zrotation Xrotation Yrotation
                                JOINT LeftFinger41
                                {
                                    OFFSET   3.717550   0.000000   0.000000
                                    CHANNELS 3 Zrotation Xrotation Yrotation
                                    JOINT LeftFinger42
                                    {
                                        OFFSET   1.858770   0.000000   0.000000
                                        CHANNELS 3 Zrotation Xrotation Yrotation
                                        End Site
                                        {
                                            OFFSET   1.818440   0.000000   0.000000
                                        }
                                    }
                                }
                            }
                        }
                    }
                }
            }
            JOINT RightCollar
            {
                OFFSET  -3.911910  19.017000  -0.467062
                CHANNELS 3 Zrotation Xrotation Yrotation
                JOINT RightShoulder
                {
                    OFFSET -10.383700   0.000014   0.000000
                    CHANNELS 3 Zrotation Xrotation Yrotation
                    JOINT RightElbow
                    {
                        OFFSET -26.662100   0.001225   0.001091
                        CHANNELS 3 Zrotation Xrotation Yrotation
                        JOINT RightWrist
                        {
                            OFFSET -28.869000  -0.000020  -0.000085
                            CHANNELS 3 Zrotation Xrotation Yrotation
                            JOINT RightFinger0
                            {
                                OFFSET  -2.044650  -2.323490   3.252850
                                CHANNELS 3 Zrotation Xrotation Yrotation
                                JOINT RightFinger01
                                {
                                    OFFSET  -3.088130   0.000000   0.000000
                                    CHANNELS 3 Zrotation Xrotation Yrotation
                                    JOINT RightFinger02
                                    {
                                        OFFSET  -2.639460   0.000000   0.000000
                                        CHANNELS 3 Zrotation Xrotation Yrotation
                                        End Site
                                        {
                                            OFFSET  -2.582190   0.000000   0.000000
                                        }
                                    }
                                }
                            }
                            JOINT RightFinger1
                            {
                                OFFSET  -8.364480   0.000000   3.252850
                                CHANNELS 3 Zrotation Xrotation Yrotation
                                JOINT RightFinger11
                                {
                                    OFFSET  -4.646930   0.000000   0.000000
                                    CHANNELS 3 Zrotation Xrotation Yrotation
                                    JOINT RightFinger12
                                    {
                                        OFFSET  -2.323470   0.000000   0.000000
                                        CHANNELS 3 Zrotation Xrotation Yrotation
                                        End Site
                                        {
                                            OFFSET  -2.273050   0.000000   0.000000
                                        }
                                    }
                                }
                            }
                            JOINT RightFinger2
                            {
                                OFFSET  -8.364480   0.000000   1.078090
                                CHANNELS 3 Zrotation Xrotation Yrotation
                                JOINT RightFinger21
                                {
                                    OFFSET  -5.111620   0.000000   0.000000
                                    CHANNELS 3 Zrotation Xrotation Yrotation
                                    JOINT RightFinger22
                                    {
                                        OFFSET  -2.788160   0.000000   0.000000
                                        CHANNELS 3 Zrotation Xrotation Yrotation
                                        End Site
                                        {
                                            OFFSET  -2.727660   0.000000   0.000000
                                        }
                                    }
                                }
                            }
                            JOINT RightFinger3
                            {
                                OFFSET  -7.899780   0.000000  -1.078090
                                CHANNELS 3 Zrotation Xrotation Yrotation
                                JOINT RightFinger31
                                {
                                    OFFSET  -4.646930   0.000000   0.000000
                                    CHANNELS 3 Zrotation Xrotation Yrotation
                                    JOINT RightFinger32
                                    {
                                        OFFSET  -2.323470   0.000000   0.000000
                                        CHANNELS 3 Zrotation Xrotation Yrotation
                                        End Site
                                        {
                                            OFFSET  -2.273050   0.000000   0.000000
                                        }
                                    }
                                }
                            }
                            JOINT RightFinger4
                            {
                                OFFSET  -7.435090   0.000000  -3.252850
                                CHANNELS 3 Zrotation Xrotation Yrotation
                                JOINT RightFinger41
                                {
                                    OFFSET  -3.717550   0.000000   0.000000
                                    CHANNELS 3 Zrotation Xrotation Yrotation
                                    JOINT RightFinger42
                                    {
                                        OFFSET  -1.858760   0.000000   0.000000
                                        CHANNELS 3 Zrotation Xrotation Yrotation
                                        End Site
                                        {
                                            OFFSET  -1.818440   0.000000   0.000000
                                        }
                                    }
                                }
                            }
                        }
                    }
                }
            }
        }
    }
    JOINT LeftHip
    {
        OFFSET   9.783030   0.000000   0.000000
        CHANNELS 3 Zrotation Xrotation Yrotation
        JOINT LeftKnee
        {
            OFFSET   0.000063 -41.789100   0.000608
            CHANNELS 3 Zrotation Xrotation Yrotation
            JOINT LeftAnkle
            {
                OFFSET   0.000048 -41.133200  -0.000184
                CHANNELS 3 Zrotation Xrotation Yrotation
                JOINT LeftToe
                {
                    OFFSET   0.000000  -6.358960  14.674500
                    CHANNELS 3 Zrotation Xrotation Yrotation
                    End Site
                    {
                        OFFSET   0.000000   0.000000   3.913200
                    }
                }
            }
        }
    }
    JOINT RightHip
    {
        OFFSET  -9.783030   0.000000   0.000000
        CHANNELS 3 Zrotation Xrotation Yrotation
        JOINT RightKnee
        {
            OFFSET   0.000071 -41.789100   0.001239
            CHANNELS 3 Zrotation Xrotation Yrotation
            JOINT RightAnkle
            {
                OFFSET   0.000037 -41.133200  -0.000166
                CHANNELS 3 Zrotation Xrotation Yrotation
                JOINT RightToe
                {
                    OFFSET   0.000000  -6.358960  14.674500
                    CHANNELS 3 Zrotation Xrotation Yrotation
                    End Site
                    {
                        OFFSET   0.000000   0.000000   3.913200
                    }
                }
            }
        }
    }
}
MOTION
Frames: 6
Frame Time:   0.016667
  0.544690  89.449900  -1.228850  -3.244600  -7.059470  -0.504203   1.821300   4.707110   0.052815   3.656860   9.413520  -0.045332   0.783643   0.310256  -0.005514   1.287670   0.629537   7.025200  -5.126220  -0.316874  -3.123220 -52.831600  -2.315770 -65.933900  -8.790630 -17.854200 -89.822300  -9.075940 -22.797100  -2.739420  40.855700  26.618900 -65.036000  -8.212690   0.003015   0.000512   0.893693  -0.004315  -0.001213 -16.399000   3.416780 -11.432000 -13.695100   0.000342  -0.000000  -9.586600   0.004613   0.001792 -20.750400   2.035550  -5.355150 -20.847100   0.007358   0.004466 -13.884200   0.004963   0.004007 -16.627400  -0.565831   1.846990 -16.642200   0.000981   0.001627 -11.083700   0.006584   0.001996 -23.918100  -1.812300   4.120430 -35.968700  -0.000602   0.013719 -23.955200   0.000279   0.000326  -1.184210  -3.480410  12.614000  41.432900 -13.131100  53.546500 -24.733500 -28.073900  70.081800  25.121500 -21.510800  29.840500 -55.923900  36.198600  67.040900   2.386600   0.012017  -0.000611  -3.806710   0.002530   0.011025  16.513900   4.199480  13.851500  13.926600  -0.000100  -0.006208   9.748640   0.002234  -0.003859  13.907400   2.298330   9.180330  14.090100   0.001840  -0.001830   9.384000   0.002775  -0.000132  17.847100   2.227380   6.862080  17.978300  -0.002242  -0.003057  11.973500  -0.002039  -0.002994  21.419700   1.950860   4.901030  32.244600  -0.010004  -0.004432  21.474900  -0.007997  -0.001593   3.985210  10.315900   5.526690   1.147200   0.001683  12.337700  -2.445870  -2.105300   4.391340  -0.000000   0.000000  -0.000000   1.237140   5.326970  -4.262770   0.913285   5.040720  -8.075310  -1.695620  -2.564600  -3.328960  -0.000000   0.000000   0.000000
  0.538198  89.456800  -1.180960  -3.237830  -7.023140  -0.513631   1.820060   4.639120   0.047309   3.654330   9.277400  -0.054067   0.777537   0.328252  -0.005455   1.277570   0.665763   7.028570  -5.135490  -0.164112  -3.112170 -53.808500  -2.530330 -66.057300  -8.391000 -18.312200 -90.067300  -6.199180 -21.434500  -2.325770  40.678200  26.377500 -64.889400  -8.402510   0.003289   0.000543   0.798776  -0.004369  -0.000929 -16.203000   3.324240 -11.294300 -13.524700   0.000264   0.000027  -9.467310   0.004412   0.001424 -20.453000   2.041520  -5.437990 -20.550900   0.006995   0.004448 -13.686900   0.004742   0.003701 -16.596100  -0.463601   1.501140 -16.608200   0.000779   0.001530 -11.061000   0.006328   0.001712 -23.241200  -1.852700   4.348480 -34.959400  -0.000835   0.012074 -23.283000  -0.000001   0.000340  -1.129860  -3.360550  12.577600  42.225800 -13.601800  53.801600 -24.971600 -28.434900  69.769100  21.281700 -22.521600  28.792700 -55.848500  36.027600  66.557600   2.630270   0.015097  -0.000656  -3.684870   0.004009   0.016246  16.046300   4.097020  13.843400  13.530500  -0.000053  -0.006068   9.471350   0.002201  -0.003982  13.738000   2.264980   9.166530  13.918200   0.001854  -0.001573   9.269550   0.002775   0.000112  17.609100   2.196150   6.844040  17.737500  -0.002196  -0.002461  11.813200  -0.001972  -0.002497  21.053500   1.791310   4.558880  31.677900  -0.010355  -0.004476  21.097500  -0.008331  -0.001302   3.975430  10.315600   5.524280   1.146160   0.000815  12.351200  -2.447980  -2.125940   4.397810  -0.000000   0.000000   0.000000   1.236640   5.332140  -4.254450   0.919183   5.022770  -8.073360  -1.703240  -2.586860  -3.332480   0.000000   0.000000   0.000000
  0.531671  89.465200  -1.130490  -3.231830  -6.985620  -0.523474   1.818680   4.572310   0.044115   3.651350   9.143710  -0.058189   0.770597   0.347838  -0.005396   1.266010   0.705071   7.035940  -5.146820  -0.007399  -3.100240 -54.748500  -2.817300 -66.121700  -8.011490 -18.688600 -90.267900  -3.608240 -19.892700  -2.042630  40.511500  26.160900 -64.769500  -8.580510   0.003567   0.000571   0.709758  -0.004420  -0.000847 -16.086900   3.269700 -11.183600 -13.422700   0.000193   0.000132  -9.395890   0.004216   0.001110 -20.280500   2.058800  -5.560780 -20.382100   0.006636   0.004441 -13.574500   0.004526   0.003407 -16.563900  -0.353741   1.137120 -16.574100   0.000611   0.001431 -11.038300   0.006072   0.001424 -22.607700  -1.885250   4.556110 -34.014500  -0.001033   0.008548 -22.653700  -0.000221   0.000418  -1.064220  -3.227440  12.540100  43.066000 -14.082900  53.979000 -25.242900 -28.757000  69.510900  17.368100 -23.450500  27.700400 -55.756800  35.853000  66.161700   3.122610   0.015971  -0.000700  -3.438690   0.005190   0.019041  15.619700   3.946920  13.797100  13.167500   0.000000  -0.005932   9.217250   0.002170  -0.004050  13.662900   2.242500   9.136730  13.841500   0.001886  -0.001235   9.218450   0.002775   0.000391  17.494600   2.155640   6.754840  17.615800  -0.002134  -0.001900  11.732100  -0.001891  -0.001952  20.870100   1.618390   4.157860  31.377200  -0.010632  -0.004611  20.897200  -0.008606  -0.001031   3.966440  10.313000   5.523890   1.146010   0.000691  12.358100  -2.452750  -2.159770   4.406000  -0.000000   0.000000   0.000000   1.235790   5.333580  -4.245670   0.925428   5.009810  -8.069300  -1.711890  -2.611400  -3.338330   0.000000   0.000000  -0.000000
  0.524543  89.474700  -1.078830  -3.226970  -6.947750  -0.533036   1.816650   4.509670   0.041150   3.647080   9.018380  -0.061939   0.764826   0.365838  -0.005337   1.256580   0.741472   7.050850  -5.162840   0.140170  -3.089720 -55.750400  -3.254930 -66.055100  -7.744800 -18.826200 -90.449700  -1.184370 -18.265400  -1.893210  40.273600  25.910300 -64.689800  -9.038160   0.003858   0.000628   0.480926  -0.004471  -0.000722 -16.182600   3.287000 -11.157400 -13.501400   0.000130   0.000350  -9.450940   0.004026   0.000870 -20.380700   2.098120  -5.637750 -20.485500   0.006273   0.004450 -13.643300   0.004319   0.003120 -16.780300  -0.262258   0.836282 -16.786400   0.000484   0.001323 -11.179700   0.005816   0.001133 -22.301600  -1.943390   4.760450 -33.558600  -0.001207   0.002669 -22.350100  -0.000345   0.000604  -1.001290  -3.075400  12.519100  43.975600 -14.648800  54.051000 -25.365100 -29.041100  69.379600  13.361800 -24.021400  26.524000 -55.601200  35.697400  65.922000   3.875930   0.012636  -0.000648  -3.062020   0.005517   0.019324  15.490100   3.869380  13.671500  13.055300   0.000070  -0.005799   9.138700   0.002136  -0.004062  13.861500   2.265510   9.095380  14.042000   0.001933  -0.000942   9.351980   0.002783   0.000716  17.574000   2.095850   6.558710  17.689900  -0.002056  -0.001313  11.781400  -0.001796  -0.001362  20.912800   1.431690   3.695650  31.421000  -0.010840  -0.004839  20.926400  -0.008824  -0.000778   3.964420  10.278200   5.526720   1.141880   0.071685  12.359400  -2.467800  -2.228400   4.416770  -0.000000   0.000000   0.000000   1.234920   5.334170  -4.237590   0.932315   5.002070  -8.062230  -1.719840  -2.639800  -3.344200  -0.000000   0.000000   0.000000
  0.516918  89.485300  -1.024470  -3.221620  -6.910020  -0.540872   1.814720   4.449490   0.035431   3.643240   8.897880  -0.071312   0.755824   0.382504  -0.005279   1.241860   0.775245   7.076460  -5.177560   0.289649  -3.056280 -56.823000  -3.767260 -65.888100  -7.379230 -18.888900 -90.540600   0.953469 -16.758800  -1.847880  39.978500  25.543400 -64.508200  -9.573740   0.004147   0.000705   0.213128  -0.004518  -0.000635 -16.398200   3.317190 -11.128200 -13.680000   0.000075   0.000619  -9.576000   0.003838   0.000676 -20.483500   2.126110  -5.674770 -20.588900   0.005909   0.004472 -13.712200   0.004121   0.002835 -17.099700  -0.188297   0.594292 -17.103100   0.000386   0.001207 -11.390600   0.005562   0.000843 -22.194800  -2.063280   5.070670 -33.421100  -0.001355  -0.001329 -22.258500  -0.000416   0.000841  -0.927499  -2.901350  12.503300  44.909700 -15.262700  54.036800 -25.422500 -29.315500  69.311800   9.435070 -24.338000  25.333200 -55.399300  35.552600  65.730300   4.669130   0.008118  -0.000596  -2.665420   0.005564   0.019364  15.467900   3.818340  13.533100  13.026200   0.000145  -0.005674   9.118320   0.002105  -0.004063  14.149400   2.299580   9.051730  14.332400   0.001993  -0.000268   9.545420   0.002799   0.001097  17.657300   2.019030   6.292200  17.763900  -0.001963  -0.000644  11.830800  -0.001688  -0.000727  20.968800   1.249890   3.226970  31.496800  -0.010931  -0.005156  20.976900  -0.008926  -0.000546   3.963830  10.245500   5.529590   1.137740   0.142678  12.360100  -2.477510  -2.293680   4.429020  -0.000000   0.000000  -0.000000   1.234170   5.334750  -4.231030   0.939684   4.995290  -8.057350  -1.727380  -2.671080  -3.347770  -0.000000   0.000000  -0.000000
  0.508783  89.497200  -0.965868  -3.213930  -6.873300  -0.545047   1.813820   4.390920   0.022185   3.642060   8.780320  -0.095936   0.738077   0.397562  -0.005221   1.212700   0.805755   7.120080  -5.187860   0.442994  -2.968550 -57.839900  -4.278450 -65.698700  -6.923280 -18.993900 -90.540200   2.660200 -15.661300  -1.966660  39.563700  24.850300 -64.029300 -10.123000   0.004415   0.000807  -0.061543  -0.004560  -0.000589 -16.790000   3.353060 -10.996800 -14.001400   0.000035   0.000861  -9.800930   0.003646   0.000509 -20.482700   2.115260  -5.634170 -20.586100   0.005542   0.004502 -13.710300   0.003935   0.002547 -17.304800  -0.152022   0.474141 -17.308400   0.000306   0.001080 -11.527400   0.005318   0.000556 -22.304600  -2.349380   5.710330 -33.624600  -0.001478   0.003209 -22.393900  -0.000461   0.001099  -0.828397  -2.692910  12.486600  45.843700 -15.875900  54.033200 -25.516000 -29.608300  69.227100   5.778000 -24.329400  24.129400 -55.100200  35.342100  65.465600   5.261110   0.006861  -0.000620  -2.369440   0.005455   0.019195  15.453500   3.803120  13.465800  13.009500   0.000213  -0.005618   9.106650   0.002084  -0.004040  14.309900   2.321110   9.032960  14.491700   0.002068   0.000477   9.651530   0.002814   0.001322  17.673900   1.922950   5.971850  17.761400  -0.001857  -0.000227  11.829100  -0.001567  -0.000388  21.033200   1.101370   2.821920  31.580700  -0.010917  -0.005691  21.032700  -0.008916  -0.000340   3.958980  10.271300   5.524310   1.128680   0.103165  12.363000  -2.475910  -2.312440   4.442780  -0.000000   0.000000   0.000000   1.234130   5.342300  -4.227770   0.947905   4.983750  -8.059440  -1.734010  -2.704940  -3.345440   0.000000   0.000000   0.000000
